
    <svg width="100" height="100" viewBox="-100 -100 200 200" preserveAspectRatio="none" xmlns="http://www.w3.org/2000/svg">
      <style>svg { background-color: #87b31d; }</style>
      <rect x="0" y="0" width="0" height="0" transform="rotate(0)" fill="#da5b1c" />
<rect x="5" y="0" width="264" height="1" transform="rotate(324)" fill="#db5c1d" />
<rect x="10" y="0" width="228" height="2" transform="rotate(288)" fill="#db5c1d" />
<rect x="15" y="0" width="192" height="3" transform="rotate(252)" fill="#db5d1e" />
<rect x="20" y="0" width="156" height="4" transform="rotate(216)" fill="#db5d1e" />
<rect x="25" y="0" width="120" height="5" transform="rotate(180)" fill="#db5e1f" />
<rect x="30" y="0" width="84" height="6" transform="rotate(144)" fill="#db5e1f" />
<rect x="35" y="0" width="48" height="7" transform="rotate(108)" fill="#db5f20" />
<rect x="40" y="0" width="12" height="8" transform="rotate(72)" fill="#db5f20" />
<rect x="45" y="0" width="276" height="9" transform="rotate(36)" fill="#db6020" />
<rect x="50" y="0" width="240" height="10" transform="rotate(0)" fill="#dc6021" />
<rect x="55" y="0" width="204" height="11" transform="rotate(324)" fill="#dc6121" />
<rect x="60" y="0" width="168" height="12" transform="rotate(288)" fill="#dc6122" />
<rect x="65" y="0" width="132" height="13" transform="rotate(252)" fill="#a73e1c" />
<rect x="70" y="0" width="96" height="14" transform="rotate(216)" fill="#a83e1d" />
<rect x="75" y="0" width="60" height="15" transform="rotate(180)" fill="#a93f1f" />
<rect x="80" y="0" width="24" height="16" transform="rotate(144)" fill="#aa4020" />
<rect x="85" y="0" width="288" height="17" transform="rotate(108)" fill="#ab4022" />
<rect x="90" y="0" width="252" height="18" transform="rotate(72)" fill="#ac4123" />
<rect x="95" y="0" width="216" height="19" transform="rotate(36)" fill="#ad4224" />
<rect x="100" y="0" width="180" height="20" transform="rotate(0)" fill="#ae4226" />
<rect x="105" y="0" width="144" height="21" transform="rotate(324)" fill="#af4327" />
<rect x="110" y="0" width="108" height="22" transform="rotate(288)" fill="#b04429" />
<rect x="115" y="0" width="72" height="23" transform="rotate(252)" fill="#b1442a" />
<rect x="120" y="0" width="36" height="24" transform="rotate(216)" fill="#b2452c" />
<rect x="125" y="0" width="0" height="25" transform="rotate(180)" fill="#6b13f" />
<rect x="130" y="0" width="264" height="26" transform="rotate(144)" fill="#6b13f" />
<rect x="135" y="0" width="228" height="27" transform="rotate(108)" fill="#6b13f" />
<rect x="140" y="0" width="192" height="28" transform="rotate(72)" fill="#6b13f" />
<rect x="145" y="0" width="156" height="29" transform="rotate(36)" fill="#6b13f" />
<rect x="150" y="0" width="120" height="30" transform="rotate(0)" fill="#6b240" />
<rect x="155" y="0" width="84" height="31" transform="rotate(324)" fill="#7b240" />
<rect x="160" y="0" width="48" height="32" transform="rotate(288)" fill="#7b240" />
<rect x="165" y="0" width="12" height="33" transform="rotate(252)" fill="#7b240" />
<rect x="170" y="0" width="276" height="34" transform="rotate(216)" fill="#7b240" />
<rect x="175" y="0" width="240" height="35" transform="rotate(180)" fill="#7b240" />
<rect x="180" y="0" width="204" height="36" transform="rotate(144)" fill="#7b341" />
<rect x="185" y="0" width="168" height="37" transform="rotate(108)" fill="#7b341" />
<rect x="190" y="0" width="132" height="38" transform="rotate(72)" fill="#633c87" />
<rect x="195" y="0" width="96" height="39" transform="rotate(36)" fill="#653d88" />
<rect x="200" y="0" width="60" height="40" transform="rotate(0)" fill="#673d89" />
<rect x="205" y="0" width="24" height="41" transform="rotate(324)" fill="#6a3e89" />
<rect x="210" y="0" width="288" height="42" transform="rotate(288)" fill="#6c3f8a" />
<rect x="215" y="0" width="252" height="43" transform="rotate(252)" fill="#6f3f8b" />
<rect x="220" y="0" width="216" height="44" transform="rotate(216)" fill="#71408b" />
<rect x="225" y="0" width="180" height="45" transform="rotate(180)" fill="#73418c" />
<rect x="230" y="0" width="144" height="46" transform="rotate(144)" fill="#76428c" />
<rect x="235" y="0" width="108" height="47" transform="rotate(108)" fill="#78428d" />
<rect x="240" y="0" width="72" height="48" transform="rotate(72)" fill="#7b438e" />
<rect x="245" y="0" width="36" height="49" transform="rotate(36)" fill="#7d448e" />
<rect x="250" y="0" width="0" height="50" transform="rotate(0)" fill="#b1f390" />
<rect x="255" y="0" width="264" height="51" transform="rotate(324)" fill="#b2f391" />
<rect x="260" y="0" width="228" height="52" transform="rotate(288)" fill="#b3f391" />
<rect x="265" y="0" width="192" height="53" transform="rotate(252)" fill="#b3f492" />
<rect x="270" y="0" width="156" height="54" transform="rotate(216)" fill="#b4f492" />
<rect x="275" y="0" width="120" height="55" transform="rotate(180)" fill="#b5f493" />
<rect x="280" y="0" width="84" height="56" transform="rotate(144)" fill="#b6f593" />
<rect x="285" y="0" width="48" height="57" transform="rotate(108)" fill="#b6f594" />
<rect x="290" y="0" width="12" height="58" transform="rotate(72)" fill="#b7f594" />
<rect x="295" y="0" width="276" height="59" transform="rotate(36)" fill="#b8f595" />
<rect x="0" y="0" width="240" height="60" transform="rotate(0)" fill="#b9f595" />
<rect x="5" y="0" width="204" height="61" transform="rotate(324)" fill="#b9f696" />
<rect x="10" y="0" width="168" height="62" transform="rotate(288)" fill="#baf696" />
<rect x="15" y="0" width="132" height="63" transform="rotate(252)" fill="#9ba4a" />
<rect x="20" y="0" width="96" height="64" transform="rotate(216)" fill="#9da4b" />
<rect x="25" y="0" width="60" height="65" transform="rotate(180)" fill="#9ea4c" />
<rect x="30" y="0" width="24" height="66" transform="rotate(144)" fill="#a0a4d" />
<rect x="35" y="0" width="288" height="67" transform="rotate(108)" fill="#a1b4e" />
<rect x="40" y="0" width="252" height="68" transform="rotate(72)" fill="#a3b4f" />
<rect x="45" y="0" width="216" height="69" transform="rotate(36)" fill="#a4b50" />
<rect x="50" y="0" width="180" height="70" transform="rotate(0)" fill="#a6b51" />
<rect x="55" y="0" width="144" height="71" transform="rotate(324)" fill="#a7b52" />
<rect x="60" y="0" width="108" height="72" transform="rotate(288)" fill="#a9b53" />
<rect x="65" y="0" width="72" height="73" transform="rotate(252)" fill="#aab54" />
<rect x="70" y="0" width="36" height="74" transform="rotate(216)" fill="#acb55" />
<rect x="75" y="0" width="0" height="75" transform="rotate(180)" fill="#dd6759" />
<rect x="80" y="0" width="264" height="76" transform="rotate(144)" fill="#dd685a" />
<rect x="85" y="0" width="228" height="77" transform="rotate(108)" fill="#dd695b" />
<rect x="90" y="0" width="192" height="78" transform="rotate(72)" fill="#dd6a5b" />
<rect x="95" y="0" width="156" height="79" transform="rotate(36)" fill="#dd6c5c" />
<rect x="100" y="0" width="120" height="80" transform="rotate(0)" fill="#dd6d5c" />
<rect x="105" y="0" width="84" height="81" transform="rotate(324)" fill="#dd6e5d" />
<rect x="110" y="0" width="48" height="82" transform="rotate(288)" fill="#dd6f5e" />
<rect x="115" y="0" width="12" height="83" transform="rotate(252)" fill="#dd705e" />
<rect x="120" y="0" width="276" height="84" transform="rotate(216)" fill="#dd715f" />
<rect x="125" y="0" width="240" height="85" transform="rotate(180)" fill="#dd7260" />
<rect x="130" y="0" width="204" height="86" transform="rotate(144)" fill="#dd7460" />
<rect x="135" y="0" width="168" height="87" transform="rotate(108)" fill="#dd7561" />
<rect x="140" y="0" width="132" height="88" transform="rotate(72)" fill="#78e3cd" />
<rect x="145" y="0" width="96" height="89" transform="rotate(36)" fill="#78e4ce" />
<rect x="150" y="0" width="60" height="90" transform="rotate(0)" fill="#78e4d0" />
<rect x="155" y="0" width="24" height="91" transform="rotate(324)" fill="#78e5d1" />
<rect x="160" y="0" width="288" height="92" transform="rotate(288)" fill="#78e6d3" />
<rect x="165" y="0" width="252" height="93" transform="rotate(252)" fill="#78e6d4" />
<rect x="170" y="0" width="216" height="94" transform="rotate(216)" fill="#79e7d5" />
<rect x="175" y="0" width="180" height="95" transform="rotate(180)" fill="#79e8d7" />
<rect x="180" y="0" width="144" height="96" transform="rotate(144)" fill="#79e9d8" />
<rect x="185" y="0" width="108" height="97" transform="rotate(108)" fill="#79e9d9" />
<rect x="190" y="0" width="72" height="98" transform="rotate(72)" fill="#79eadb" />
<rect x="195" y="0" width="36" height="99" transform="rotate(36)" fill="#79ebdc" />
    </svg>
  